<svg width="35" height="35" viewBox="0 0 35 35" fill="none" xmlns="http://www.w3.org/2000/svg">
<path d="M17.5 0C14.0388 0 10.6554 1.02636 7.77753 2.94928C4.89967 4.87221 2.65665 7.60533 1.33212 10.803C0.00758247 14.0007 -0.338976 17.5194 0.336265 20.9141C1.01151 24.3087 2.67822 27.4269 5.12564 29.8744C7.57306 32.3218 10.6913 33.9885 14.0859 34.6637C17.4806 35.339 20.9993 34.9924 24.197 33.6679C27.3947 32.3433 30.1278 30.1003 32.0507 27.2225C33.9736 24.3446 35 20.9612 35 17.5C35 15.2019 34.5474 12.9262 33.6679 10.803C32.7884 8.67984 31.4994 6.75065 29.8744 5.12563C28.2493 3.50061 26.3202 2.21157 24.197 1.33211C22.0738 0.452651 19.7981 0 17.5 0ZM25.025 13.3175L17.0275 23.8175C16.8645 24.0293 16.6551 24.2009 16.4155 24.3192C16.1758 24.4375 15.9123 24.4994 15.645 24.5C15.3792 24.5014 15.1165 24.4423 14.877 24.3271C14.6375 24.2118 14.4273 24.0436 14.2625 23.835L9.99251 18.3925C9.85117 18.2109 9.74698 18.0033 9.68588 17.7815C9.62478 17.5597 9.60797 17.328 9.63641 17.0997C9.66484 16.8714 9.73797 16.6509 9.85162 16.4508C9.96527 16.2508 10.1172 16.0751 10.2988 15.9337C10.6654 15.6483 11.1305 15.5202 11.5916 15.5776C11.8199 15.6061 12.0404 15.6792 12.2404 15.7929C12.4405 15.9065 12.6162 16.0584 12.7575 16.24L15.61 19.88L22.225 11.13C22.3652 10.9461 22.5402 10.7917 22.7401 10.6755C22.94 10.5593 23.1608 10.4836 23.3899 10.4527C23.619 10.4218 23.852 10.4364 24.0755 10.4956C24.299 10.5547 24.5087 10.6573 24.6925 10.7975C24.8764 10.9377 25.0308 11.1127 25.147 11.3126C25.2632 11.5125 25.3389 11.7333 25.3698 11.9624C25.4007 12.1915 25.3861 12.4245 25.3269 12.648C25.2678 12.8715 25.1652 13.0811 25.025 13.265V13.3175Z" fill="#4DA95D"/>
</svg>
